<?xml version="1.0" encoding="UTF-8"?>
<svg id="_레이어_2" data-name="레이어 2" xmlns="http://www.w3.org/2000/svg" viewBox="0 0 140.3 111.12">
  <defs>
    <style>
      .cls-1 {
        fill: #fff;
      }
    </style>
  </defs>
  <g id="_레이어_2-2" data-name=" 레이어 2">
    <g id="_레이어_1-2" data-name=" 레이어 1-2">
      <g>
        <path class="cls-1" d="M38.88,95.5c1.14,1.92,3.34,3.81,5.44,4.74l1.81-2.44c-3.19-1.35-5.65-4.12-5.65-7.28v-2.7h-3.34v2.77c0,3.24-2.98,6.48-6.01,7.96l2.05,2.28c2.18-1.09,4.54-3.34,5.7-5.34h0Z"/>
        <polygon class="cls-1" points="39.38 102 36.03 102 36.03 109.91 51.79 109.91 51.79 107.11 39.38 107.11 39.38 102"/>
        <rect class="cls-1" x="48.09" y="86.92" width="3.29" height="16.98"/>
        <path class="cls-1" d="M66.87,100.37c-4.1,0-6.82,2.38-6.82,5.36s2.72,5.39,6.82,5.39,6.82-2.39,6.82-5.39-2.72-5.36-6.82-5.36Zm0,8.01c-2.1,0-3.47-1.14-3.47-2.62s1.37-2.62,3.47-2.62,3.47,1.14,3.47,2.62-1.37,2.62-3.47,2.62Z"/>
        <polygon class="cls-1" points="70.45 90.81 65.91 90.81 65.91 93.63 70.45 93.63 70.45 100.24 73.76 100.24 73.76 86.92 70.45 86.92 70.45 90.81"/>
        <path class="cls-1" d="M66.38,99.39l1.81-2.44c-3.08-1.27-5.49-3.42-5.49-6.58v-2.69h-3.34v2.77c0,3.24-3.11,6.14-5.93,7.44l2.07,2.31c2.15-1.04,4.38-3.03,5.6-4.98,1.22,1.89,3.19,3.24,5.29,4.17h0Z"/>
        <rect class="cls-1" x="92.44" y="86.92" width="3.29" height="23.46"/>
        <path class="cls-1" d="M83.22,88.5c-4.46,0-6.64,3.34-6.64,7.28s2.18,7.31,6.64,7.31,6.53-3.32,6.53-7.31-2.1-7.28-6.53-7.28Zm0,11.71c-2.13,0-3.27-1.81-3.27-4.41s1.14-4.41,3.27-4.41,3.21,1.81,3.21,4.41-1.17,4.41-3.21,4.41Z"/>
        <rect class="cls-1" x="115.48" y="86.92" width="3.21" height="17.13"/>
        <path class="cls-1" d="M109.18,95.19h1.68v8.32h3.14v-16.23h-3.14v5.08h-1.74c-.54-2.67-2.46-4.64-5.37-4.64-3.45,0-5.52,2.7-5.52,6.09s2.07,6.06,5.52,6.06c2.98,0,4.92-1.97,5.42-4.69h.01Zm-7.83-1.36c0-1.84,.91-3.27,2.41-3.27s2.41,1.43,2.41,3.27-.91,3.27-2.41,3.27-2.41-1.45-2.41-3.27Z"/>
        <polygon class="cls-1" points="106.2 102.03 102.93 102.03 102.93 109.93 119.06 109.93 119.06 107.11 106.2 107.11 106.2 102.03"/>
        <path class="cls-1" d="M129.83,93.11v-1.79h4.74v-2.77h-13.04v2.77h5v1.79c0,4.41-2.64,7.77-6.12,10.06l2.28,2.25c2.07-1.37,4.12-3.47,5.55-5.91,.99,2.05,3.32,4.17,5.39,5.44l2.02-2.36c-3.71-2.1-5.83-5.34-5.83-9.49h0Z"/>
        <rect class="cls-1" x="136.98" y="86.92" width="3.32" height="23.46"/>
        <path class="cls-1" d="M3.1,89.1c-1.98,2.8-3.1,6.45-3.1,9.97s1.12,7.17,3.1,9.97l1.66-.8c-1.72-2.62-2.68-5.88-2.68-9.17s.96-6.55,2.68-9.17l-1.66-.8Z"/>
        <polygon class="cls-1" points="5.06 102.11 12.63 102.11 12.63 108.11 14.71 108.11 14.71 102.11 22.1 102.11 22.1 100.37 5.06 100.37 5.06 102.11"/>
        <path class="cls-1" d="M6.22,97.72l1.06,1.52c2.46-.52,5.1-2.34,6.27-4.24,1.16,1.9,3.86,3.72,6.31,4.24l1-1.52c-2.86-.6-5.96-2.7-6.19-5.02h5.24v-1.74H7.19v1.74h5.2c-.22,2.32-3.28,4.36-6.17,5.02Z"/>
        <path class="cls-1" d="M22.42,89.9c1.72,2.62,2.68,5.88,2.68,9.17s-.96,6.55-2.68,9.17l1.66,.8c1.98-2.8,3.1-6.45,3.1-9.97s-1.12-7.17-3.1-9.97l-1.66,.8Z"/>
        <path class="cls-1" d="M34.37,80.7c-.21,.1-.45,.17-.61,.19-.53,.06-.92-.04-1.42-.36-.42-.27-.6-.65-.66-.82l-.77,.26c.08,.23,.38,.79,.98,1.19,.62,.41,1.25,.56,1.93,.49,.3-.02,.67-.16,.92-.28,.36-.19,.69-.47,.88-.85,.32-.74,.04-1.38-.24-1.71-.23-.25-.68-.53-1.8-.88l-.44-.15c-.24-.06-.41-.16-.6-.29-.16-.12-.25-.21-.36-.33-.16-.22-.26-.6-.1-.95,.23-.44,.62-.55,.98-.59,.42-.04,.92,.02,1.4,.34,.25,.17,.4,.33,.52,.54l.68-.41c-.15-.25-.4-.53-.76-.78-.66-.44-1.42-.51-1.92-.46s-1.28,.29-1.63,1.04c-.31,.7-.07,1.38,.23,1.75,.06,.07,.24,.26,.52,.45,.22,.14,.48,.28,.81,.4l.44,.14c.96,.32,1.27,.47,1.42,.66,.15,.18,.3,.5,.12,.89-.13,.23-.3,.36-.52,.49v.03Z"/>
        <polygon class="cls-1" points="38.63 78.57 42.1 78.57 42.1 81.56 42.91 81.56 42.91 74.96 42.1 74.96 42.1 77.78 38.63 77.78 38.63 74.96 37.82 74.96 37.82 81.56 38.63 81.56 38.63 78.57"/>
        <rect class="cls-1" x="45.16" y="74.96" width=".79" height="6.59"/>
        <polygon class="cls-1" points="53.76 74.96 52.98 74.96 52.98 80.3 49.08 74.96 48.19 74.96 48.19 81.56 48.99 81.56 48.99 76.21 52.87 81.56 53.76 81.56 53.76 74.96"/>
        <path class="cls-1" d="M59.33,80.7c-.21,.1-.45,.17-.61,.19-.53,.06-.92-.04-1.42-.36-.42-.27-.6-.65-.66-.82l-.77,.26c.08,.23,.38,.79,.98,1.19,.62,.41,1.25,.56,1.93,.49,.3-.02,.67-.16,.92-.28,.36-.19,.69-.47,.88-.85,.32-.74,.04-1.38-.24-1.71-.23-.25-.68-.53-1.8-.88l-.44-.15c-.24-.06-.41-.16-.6-.29-.16-.12-.25-.21-.36-.33-.16-.22-.26-.6-.1-.95,.23-.44,.62-.55,.98-.59,.42-.04,.92,.02,1.4,.34,.25,.17,.4,.33,.52,.54l.68-.41c-.15-.25-.4-.53-.76-.78-.66-.44-1.42-.51-1.92-.46s-1.28,.29-1.64,1.04c-.31,.7-.07,1.38,.23,1.75,.06,.07,.24,.26,.52,.45,.22,.14,.48,.28,.81,.4l.44,.14c.96,.32,1.27,.47,1.42,.66,.15,.18,.3,.5,.12,.89-.13,.23-.3,.36-.52,.49v.03Z"/>
        <path class="cls-1" d="M62.69,74.96v4.01c0,1.48,1.11,2.65,2.57,2.65,1.32,0,2.57-1.17,2.57-2.65v-4.01h-.8v4c0,1.07-.84,1.84-1.76,1.84-1.01,0-1.76-.77-1.76-1.84v-4h-.82Z"/>
        <polygon class="cls-1" points="74.81 80.3 70.92 74.96 70.03 74.96 70.03 81.56 70.83 81.56 70.83 76.21 74.7 81.56 75.6 81.56 75.6 74.96 74.81 74.96 74.81 80.3"/>
        <path class="cls-1" d="M80.85,75.7c1.54,0,2.06,1.16,2.06,1.16l.7-.38s-.7-1.59-2.76-1.59-3.26,1.49-3.26,3.36,1.24,3.37,3.26,3.37c1.76-.04,2.94-1,3.12-2.86,0,0,.05-.51,0-.73h-3v.77h2.17c-.16,1.41-1.03,1.98-2.29,2.02-1.56,0-2.47-1.13-2.47-2.57s.9-2.56,2.47-2.56h0Z"/>
        <polygon class="cls-1" points="93.39 75.74 93.39 74.96 89.04 74.96 89.04 81.56 93.39 81.56 93.39 80.77 89.84 80.77 89.84 78.56 93.11 78.56 93.11 77.77 89.84 77.77 89.84 75.74 93.39 75.74"/>
        <polygon class="cls-1" points="101 81.56 101 74.96 100.22 74.96 100.22 80.3 96.32 74.96 95.43 74.96 95.43 81.56 96.23 81.56 96.23 76.21 100.11 81.56 101 81.56"/>
        <path class="cls-1" d="M106.25,81.63c1.76-.04,2.94-1,3.12-2.86,0,0,.05-.51,0-.73h-3v.77h2.17c-.16,1.41-1.03,1.98-2.29,2.02-1.56,0-2.47-1.13-2.47-2.57s.9-2.56,2.47-2.56,2.06,1.16,2.06,1.16l.7-.38s-.7-1.59-2.76-1.59-3.26,1.49-3.26,3.36,1.24,3.37,3.26,3.37h0Z"/>
        <polygon class="cls-1" points="98.5 29.4 98.5 16.36 70.15 0 42 16.26 41.81 16.37 41.81 29.39 41.81 29.4 41.81 29.39 63.71 31.3 63.7 31.3 67.82 32.69 67.82 32.69 55.59 37.26 76.35 34.19 76.6 34.15 91.22 40.27 70.15 52.43 41.81 36.07 41.81 49.1 70.15 65.46 98.31 49.21 98.5 49.1 98.5 36.06 76.6 34.15 76.62 34.15 72.48 32.76 72.48 32.76 84.72 28.18 63.96 31.26 63.69 31.3 49.09 25.19 49.06 25.2 70.15 13.03 98.5 29.4"/>
      </g>
    </g>
  </g>
</svg>