<?xml version="1.0" encoding="UTF-8"?>
<svg id="_레이어_2" data-name="레이어 2" xmlns="http://www.w3.org/2000/svg" viewBox="0 0 208.79 65.46">
  <defs>
    <style>
      .cls-1 {
        fill: #fff;
      }
    </style>
  </defs>
  <g id="_레이어_1-2" data-name="레이어 1">
    <g>
      <g>
        <g>
          <path class="cls-1" d="M112.79,39.81c-2.1-.93-4.3-2.82-5.44-4.74-1.17,2-3.53,4.25-5.7,5.34l-2.05-2.28c3.03-1.48,6.01-4.72,6.01-7.96v-2.77h3.34v2.7c0,3.16,2.46,5.94,5.65,7.28l-1.81,2.44Zm7.46,9.67h-15.76v-7.91h3.34v5.11h12.41v2.8Zm-.41-6.01h-3.29V26.49h3.29v16.98Z"/>
          <path class="cls-1" d="M121.88,37.45c2.83-1.3,5.93-4.2,5.93-7.44v-2.77h3.34v2.69c0,3.16,2.41,5.31,5.49,6.58l-1.81,2.44c-2.1-.93-4.07-2.28-5.29-4.17-1.22,1.94-3.45,3.94-5.6,4.98l-2.07-2.31Zm6.64,7.85c0-2.98,2.72-5.36,6.82-5.36s6.82,2.38,6.82,5.36-2.72,5.39-6.82,5.39-6.82-2.38-6.82-5.39Zm10.29,.03c0-1.48-1.37-2.62-3.47-2.62s-3.47,1.14-3.47,2.62,1.37,2.62,3.47,2.62,3.47-1.14,3.47-2.62Zm3.42-5.52h-3.32v-6.61h-4.54v-2.83h4.54v-3.89h3.32v13.32Z"/>
          <path class="cls-1" d="M151.68,42.66c-4.46,0-6.64-3.34-6.64-7.31s2.18-7.28,6.64-7.28,6.53,3.34,6.53,7.28-2.1,7.31-6.53,7.31Zm0-11.69c-2.13,0-3.27,1.81-3.27,4.41s1.14,4.41,3.27,4.41,3.21-1.81,3.21-4.41-1.17-4.41-3.21-4.41Zm12.52,18.97h-3.29V26.49h3.29v23.46Z"/>
          <path class="cls-1" d="M182.47,43.08h-3.14v-8.32h-1.68c-.49,2.72-2.44,4.69-5.42,4.69-3.45,0-5.52-2.69-5.52-6.06s2.07-6.09,5.52-6.09c2.9,0,4.82,1.97,5.37,4.64h1.74v-5.08h3.14v16.23Zm-10.24-12.96c-1.5,0-2.41,1.43-2.41,3.27s.91,3.27,2.41,3.27,2.41-1.45,2.41-3.27-.91-3.27-2.41-3.27Zm15.29,19.39h-16.12v-7.9h3.27v5.08h12.86v2.82Zm-.36-5.88h-3.21V26.49h3.21v17.13Z"/>
          <path class="cls-1" d="M202.11,44.53c-2.07-1.27-4.41-3.4-5.39-5.44-1.43,2.44-3.47,4.54-5.55,5.91l-2.28-2.25c3.47-2.28,6.12-5.65,6.12-10.06v-1.79h-5v-2.77h13.04v2.77h-4.74v1.79c0,4.15,2.12,7.39,5.83,9.49l-2.02,2.36Zm6.66,5.42h-3.32V26.49h3.32v23.46Z"/>
        </g>
        <g>
          <path class="cls-1" d="M71.57,48.6c-1.98-2.8-3.1-6.45-3.1-9.97s1.12-7.17,3.1-9.97l1.66,.8c-1.72,2.62-2.68,5.88-2.68,9.17s.96,6.55,2.68,9.17l-1.66,.8Z"/>
          <path class="cls-1" d="M90.57,41.68h-7.39v6.01h-2.08v-6.01h-7.57v-1.74h17.04v1.74Zm-2.24-2.86c-2.44-.52-5.14-2.34-6.31-4.24-1.16,1.9-3.8,3.72-6.27,4.24l-1.06-1.52c2.88-.66,5.95-2.7,6.17-5.02h-5.2v-1.74h12.73v1.74h-5.24c.22,2.32,3.32,4.42,6.19,5.02l-1,1.52Z"/>
          <path class="cls-1" d="M92.55,48.6l-1.66-.8c1.72-2.62,2.68-5.88,2.68-9.17s-.96-6.55-2.68-9.17l1.66-.8c1.98,2.8,3.1,6.45,3.1,9.97s-1.12,7.17-3.1,9.97Z"/>
        </g>
      </g>
      <g>
        <path class="cls-1" d="M133.88,15.55c-.48-.33-.98-.39-1.4-.34-.36,.04-.76,.15-.98,.59-.16,.35-.06,.73,.1,.95,.11,.12,.2,.21,.36,.33,.19,.13,.35,.23,.6,.29l.44,.15c1.12,.34,1.56,.62,1.8,.88,.28,.32,.56,.97,.24,1.71-.19,.38-.52,.66-.88,.85-.25,.12-.62,.26-.92,.28-.69,.07-1.31-.08-1.93-.49-.61-.4-.9-.96-.98-1.19l.77-.26c.06,.17,.24,.55,.66,.82,.5,.33,.88,.42,1.42,.36,.16-.02,.41-.09,.61-.19,.23-.13,.4-.26,.52-.49,.18-.39,.04-.7-.12-.89-.14-.19-.46-.34-1.42-.66l-.44-.14c-.33-.12-.6-.25-.81-.4-.28-.19-.46-.38-.52-.45-.3-.37-.53-1.06-.23-1.75,.35-.75,1.14-.98,1.63-1.04,.51-.05,1.26,.02,1.92,.46,.36,.24,.61,.52,.76,.78l-.68,.41c-.13-.21-.27-.37-.52-.54Z"/>
        <path class="cls-1" d="M142.31,21.12h-.8v-2.99h-3.48v2.99h-.8v-6.59h.8v2.82h3.48v-2.82h.8v6.59Z"/>
        <path class="cls-1" d="M145.36,14.53v6.59h-.8v-6.59h.8Z"/>
        <path class="cls-1" d="M153.16,21.12h-.89l-3.87-5.35v5.35h-.8v-6.59h.89l3.89,5.34v-5.34h.79v6.59Z"/>
        <path class="cls-1" d="M158.83,15.55c-.48-.33-.98-.39-1.4-.34-.36,.04-.76,.15-.98,.59-.16,.35-.06,.73,.1,.95,.11,.12,.2,.21,.36,.33,.19,.13,.35,.23,.6,.29l.44,.15c1.12,.34,1.56,.62,1.8,.88,.28,.32,.56,.97,.24,1.71-.19,.38-.52,.66-.88,.85-.25,.12-.62,.26-.92,.28-.69,.07-1.31-.08-1.93-.49-.61-.4-.9-.96-.98-1.19l.77-.26c.06,.17,.24,.55,.66,.82,.5,.33,.89,.42,1.42,.36,.16-.02,.41-.09,.61-.19,.23-.13,.4-.26,.52-.49,.18-.39,.04-.7-.12-.89-.14-.19-.46-.34-1.42-.66l-.44-.14c-.33-.12-.6-.25-.81-.4-.28-.19-.46-.38-.52-.45-.3-.37-.53-1.06-.23-1.75,.35-.75,1.14-.98,1.64-1.04,.51-.05,1.26,.02,1.92,.46,.36,.24,.61,.52,.76,.78l-.68,.41c-.13-.21-.27-.37-.52-.54Z"/>
        <path class="cls-1" d="M164.66,21.19c-1.45,0-2.57-1.17-2.57-2.65v-4.01h.8v4c0,1.07,.75,1.84,1.76,1.84,.92,0,1.76-.77,1.76-1.84v-4h.8v4.01c0,1.48-1.25,2.65-2.57,2.65Z"/>
        <path class="cls-1" d="M175,21.12h-.89l-3.87-5.35v5.35h-.8v-6.59h.89l3.89,5.34v-5.34h.79v6.59Z"/>
        <path class="cls-1" d="M183.36,18.33c-.17,1.86-1.35,2.83-3.12,2.86-2.02,0-3.26-1.49-3.26-3.37s1.24-3.36,3.26-3.36,2.76,1.59,2.76,1.59l-.7,.38s-.51-1.16-2.06-1.16-2.47,1.13-2.47,2.56,.9,2.57,2.47,2.57c1.26-.05,2.13-.61,2.29-2.02h-2.17v-.77h3c.04,.23,0,.73,0,.73Z"/>
        <path class="cls-1" d="M192.79,15.31h-3.55v2.03h3.27v.79h-3.27v2.21h3.55v.79h-4.34v-6.59h4.34v.78Z"/>
        <path class="cls-1" d="M200.4,21.12h-.89l-3.87-5.35v5.35h-.8v-6.59h.89l3.89,5.34v-5.34h.79v6.59Z"/>
        <path class="cls-1" d="M208.76,18.33c-.17,1.86-1.35,2.83-3.12,2.86-2.02,0-3.26-1.49-3.26-3.37s1.24-3.36,3.26-3.36,2.76,1.59,2.76,1.59l-.7,.38s-.51-1.16-2.06-1.16-2.47,1.13-2.47,2.56,.9,2.57,2.47,2.57c1.26-.05,2.13-.61,2.29-2.02h-2.17v-.77h3c.04,.23,0,.73,0,.73Z"/>
      </g>
      <g>
        <g>
          <polygon class="cls-1" points="34.79 34.15 34.79 34.15 49.42 40.27 56.69 36.06 34.79 34.15"/>
          <polygon class="cls-1" points="21.9 31.3 21.9 31.3 7.28 25.19 0 29.39 21.9 31.3"/>
          <g>
            <polygon class="cls-1" points="0 36.07 0 49.1 28.35 65.46 56.5 49.21 56.69 49.1 56.69 36.07 28.35 52.43 0 36.07"/>
            <polygon class="cls-1" points="28.35 0 .19 16.26 0 16.37 0 29.4 28.35 13.03 56.69 29.4 56.69 16.36 28.35 0"/>
          </g>
        </g>
        <polygon class="cls-1" points="30.68 32.76 42.91 28.18 22.15 31.26 21.88 31.3 26.01 32.69 26.01 32.69 13.78 37.26 34.54 34.19 34.81 34.15 30.68 32.76 30.68 32.76"/>
      </g>
    </g>
  </g>
</svg>